<mxfile host="app.diagrams.net" modified="2024-02-07T05:59:30.389Z" agent="Mozilla/5.0 (Windows NT 10.0; Win64; x64) AppleWebKit/537.36 (KHTML, like Gecko) Chrome/120.0.0.0 Safari/537.36 OPR/106.0.0.0" etag="pUaYyg3kQ1bgBv_kS3jE" version="23.1.1" type="github">
  <diagram name="Page-1" id="0zzu3dNwDBYfxRRVzu9Y">
    <mxGraphModel dx="2532" dy="955" grid="1" gridSize="10" guides="1" tooltips="1" connect="1" arrows="1" fold="1" page="1" pageScale="1" pageWidth="850" pageHeight="1100" math="0" shadow="0">
      <root>
        <mxCell id="0" />
        <mxCell id="1" parent="0" />
        <mxCell id="2XecXI-3c3T1MpKRaNhF-1" value="" style="ellipse;whiteSpace=wrap;html=1;aspect=fixed;" vertex="1" parent="1">
          <mxGeometry x="40" y="40" width="80" height="80" as="geometry" />
        </mxCell>
        <mxCell id="2XecXI-3c3T1MpKRaNhF-2" value="" style="ellipse;whiteSpace=wrap;html=1;aspect=fixed;" vertex="1" parent="1">
          <mxGeometry x="-120" y="40" width="80" height="80" as="geometry" />
        </mxCell>
        <mxCell id="2XecXI-3c3T1MpKRaNhF-3" value="" style="endArrow=classic;html=1;rounded=0;entryX=0.842;entryY=1.112;entryDx=0;entryDy=0;exitX=1;exitY=0.5;exitDx=0;exitDy=0;entryPerimeter=0;" edge="1" parent="1" source="2XecXI-3c3T1MpKRaNhF-13" target="2XecXI-3c3T1MpKRaNhF-16">
          <mxGeometry width="50" height="50" relative="1" as="geometry">
            <mxPoint x="-160" y="80" as="sourcePoint" />
            <mxPoint x="-80" y="80" as="targetPoint" />
          </mxGeometry>
        </mxCell>
        <mxCell id="2XecXI-3c3T1MpKRaNhF-4" value="" style="endArrow=classic;html=1;rounded=0;entryX=0;entryY=0.5;entryDx=0;entryDy=0;exitX=1;exitY=0.5;exitDx=0;exitDy=0;" edge="1" parent="1" source="2XecXI-3c3T1MpKRaNhF-2" target="2XecXI-3c3T1MpKRaNhF-1">
          <mxGeometry width="50" height="50" relative="1" as="geometry">
            <mxPoint x="-30" y="110" as="sourcePoint" />
            <mxPoint x="90" y="110" as="targetPoint" />
          </mxGeometry>
        </mxCell>
        <mxCell id="2XecXI-3c3T1MpKRaNhF-5" value="&lt;b style=&quot;font-size: 15px;&quot;&gt;S65&lt;/b&gt;" style="text;html=1;strokeColor=none;fillColor=none;align=center;verticalAlign=middle;whiteSpace=wrap;rounded=0;fontSize=15;" vertex="1" parent="1">
          <mxGeometry x="-110" y="65" width="60" height="30" as="geometry" />
        </mxCell>
        <mxCell id="2XecXI-3c3T1MpKRaNhF-6" value="&lt;b&gt;&lt;font style=&quot;font-size: 15px;&quot;&gt;S66&lt;/font&gt;&lt;/b&gt;" style="text;html=1;strokeColor=none;fillColor=none;align=center;verticalAlign=middle;whiteSpace=wrap;rounded=0;" vertex="1" parent="1">
          <mxGeometry x="50" y="65" width="60" height="30" as="geometry" />
        </mxCell>
        <mxCell id="2XecXI-3c3T1MpKRaNhF-7" value="E" style="text;html=1;strokeColor=none;fillColor=none;align=center;verticalAlign=middle;whiteSpace=wrap;rounded=0;fontSize=15;" vertex="1" parent="1">
          <mxGeometry x="-53" y="47.5" width="105" height="30" as="geometry" />
        </mxCell>
        <mxCell id="2XecXI-3c3T1MpKRaNhF-8" value="" style="ellipse;whiteSpace=wrap;html=1;aspect=fixed;" vertex="1" parent="1">
          <mxGeometry x="520" y="40" width="80" height="80" as="geometry" />
        </mxCell>
        <mxCell id="2XecXI-3c3T1MpKRaNhF-9" value="" style="ellipse;whiteSpace=wrap;html=1;aspect=fixed;" vertex="1" parent="1">
          <mxGeometry x="527.5" y="47.5" width="65" height="65" as="geometry" />
        </mxCell>
        <mxCell id="2XecXI-3c3T1MpKRaNhF-10" value="" style="endArrow=classic;html=1;rounded=0;entryX=0;entryY=0.5;entryDx=0;entryDy=0;exitX=1;exitY=0.5;exitDx=0;exitDy=0;" edge="1" parent="1" target="2XecXI-3c3T1MpKRaNhF-8">
          <mxGeometry width="50" height="50" relative="1" as="geometry">
            <mxPoint x="440" y="80" as="sourcePoint" />
            <mxPoint x="570" y="110" as="targetPoint" />
          </mxGeometry>
        </mxCell>
        <mxCell id="2XecXI-3c3T1MpKRaNhF-11" value="&lt;b&gt;&lt;font style=&quot;font-size: 15px;&quot;&gt;S67&lt;/font&gt;&lt;/b&gt;" style="text;html=1;strokeColor=none;fillColor=none;align=center;verticalAlign=middle;whiteSpace=wrap;rounded=0;" vertex="1" parent="1">
          <mxGeometry x="530" y="65" width="60" height="30" as="geometry" />
        </mxCell>
        <mxCell id="2XecXI-3c3T1MpKRaNhF-12" value="R" style="text;html=1;strokeColor=none;fillColor=none;align=center;verticalAlign=middle;whiteSpace=wrap;rounded=0;fontSize=15;" vertex="1" parent="1">
          <mxGeometry x="428" y="48.5" width="105" height="30" as="geometry" />
        </mxCell>
        <mxCell id="2XecXI-3c3T1MpKRaNhF-13" value="" style="ellipse;whiteSpace=wrap;html=1;aspect=fixed;" vertex="1" parent="1">
          <mxGeometry x="-280" y="40" width="80" height="80" as="geometry" />
        </mxCell>
        <mxCell id="2XecXI-3c3T1MpKRaNhF-14" value="" style="endArrow=classic;html=1;rounded=0;entryX=0.852;entryY=1.098;entryDx=0;entryDy=0;entryPerimeter=0;" edge="1" parent="1" target="2XecXI-3c3T1MpKRaNhF-19">
          <mxGeometry width="50" height="50" relative="1" as="geometry">
            <mxPoint x="-360" y="80" as="sourcePoint" />
            <mxPoint x="-240" y="80" as="targetPoint" />
          </mxGeometry>
        </mxCell>
        <mxCell id="2XecXI-3c3T1MpKRaNhF-15" value="&lt;b style=&quot;font-size: 15px;&quot;&gt;S64&lt;/b&gt;" style="text;html=1;strokeColor=none;fillColor=none;align=center;verticalAlign=middle;whiteSpace=wrap;rounded=0;fontSize=15;" vertex="1" parent="1">
          <mxGeometry x="-270" y="65" width="60" height="30" as="geometry" />
        </mxCell>
        <mxCell id="2XecXI-3c3T1MpKRaNhF-16" value="T" style="text;html=1;strokeColor=none;fillColor=none;align=center;verticalAlign=middle;whiteSpace=wrap;rounded=0;fontSize=15;" vertex="1" parent="1">
          <mxGeometry x="-209" y="47.5" width="105" height="30" as="geometry" />
        </mxCell>
        <mxCell id="2XecXI-3c3T1MpKRaNhF-17" value="" style="ellipse;whiteSpace=wrap;html=1;aspect=fixed;" vertex="1" parent="1">
          <mxGeometry x="-440" y="40" width="80" height="80" as="geometry" />
        </mxCell>
        <mxCell id="2XecXI-3c3T1MpKRaNhF-18" value="&lt;b style=&quot;font-size: 15px;&quot;&gt;S63&lt;/b&gt;" style="text;html=1;strokeColor=none;fillColor=none;align=center;verticalAlign=middle;whiteSpace=wrap;rounded=0;fontSize=15;" vertex="1" parent="1">
          <mxGeometry x="-430" y="65" width="60" height="30" as="geometry" />
        </mxCell>
        <mxCell id="2XecXI-3c3T1MpKRaNhF-19" value="N" style="text;html=1;strokeColor=none;fillColor=none;align=center;verticalAlign=middle;whiteSpace=wrap;rounded=0;fontSize=15;" vertex="1" parent="1">
          <mxGeometry x="-370" y="47.5" width="105" height="30" as="geometry" />
        </mxCell>
        <mxCell id="2XecXI-3c3T1MpKRaNhF-20" value="" style="endArrow=classic;html=1;rounded=0;" edge="1" parent="1">
          <mxGeometry width="50" height="50" relative="1" as="geometry">
            <mxPoint x="-520" y="80" as="sourcePoint" />
            <mxPoint x="-440" y="80" as="targetPoint" />
          </mxGeometry>
        </mxCell>
        <mxCell id="2XecXI-3c3T1MpKRaNhF-21" value="" style="ellipse;whiteSpace=wrap;html=1;aspect=fixed;" vertex="1" parent="1">
          <mxGeometry x="-600" y="40" width="80" height="80" as="geometry" />
        </mxCell>
        <mxCell id="2XecXI-3c3T1MpKRaNhF-22" value="" style="endArrow=classic;html=1;rounded=0;entryX=0;entryY=0.5;entryDx=0;entryDy=0;" edge="1" parent="1">
          <mxGeometry width="50" height="50" relative="1" as="geometry">
            <mxPoint x="-680" y="80" as="sourcePoint" />
            <mxPoint x="-600" y="80" as="targetPoint" />
          </mxGeometry>
        </mxCell>
        <mxCell id="2XecXI-3c3T1MpKRaNhF-23" value="&lt;b style=&quot;font-size: 15px;&quot;&gt;S75&lt;/b&gt;" style="text;html=1;strokeColor=none;fillColor=none;align=center;verticalAlign=middle;whiteSpace=wrap;rounded=0;fontSize=15;" vertex="1" parent="1">
          <mxGeometry x="-590" y="65" width="60" height="30" as="geometry" />
        </mxCell>
        <mxCell id="2XecXI-3c3T1MpKRaNhF-24" value="I" style="text;html=1;strokeColor=none;fillColor=none;align=center;verticalAlign=middle;whiteSpace=wrap;rounded=0;fontSize=15;" vertex="1" parent="1">
          <mxGeometry x="-535" y="40" width="105" height="30" as="geometry" />
        </mxCell>
        <mxCell id="2XecXI-3c3T1MpKRaNhF-25" value="" style="ellipse;whiteSpace=wrap;html=1;aspect=fixed;" vertex="1" parent="1">
          <mxGeometry x="200" y="40" width="80" height="80" as="geometry" />
        </mxCell>
        <mxCell id="2XecXI-3c3T1MpKRaNhF-26" value="" style="endArrow=classic;html=1;rounded=0;entryX=0;entryY=0.5;entryDx=0;entryDy=0;exitX=1;exitY=0.5;exitDx=0;exitDy=0;" edge="1" parent="1" target="2XecXI-3c3T1MpKRaNhF-25">
          <mxGeometry width="50" height="50" relative="1" as="geometry">
            <mxPoint x="120" y="80" as="sourcePoint" />
            <mxPoint x="250" y="110" as="targetPoint" />
          </mxGeometry>
        </mxCell>
        <mxCell id="2XecXI-3c3T1MpKRaNhF-27" value="&lt;b&gt;&lt;font style=&quot;font-size: 15px;&quot;&gt;S66&lt;/font&gt;&lt;/b&gt;" style="text;html=1;strokeColor=none;fillColor=none;align=center;verticalAlign=middle;whiteSpace=wrap;rounded=0;" vertex="1" parent="1">
          <mxGeometry x="210" y="65" width="60" height="25" as="geometry" />
        </mxCell>
        <mxCell id="2XecXI-3c3T1MpKRaNhF-28" value="G" style="text;html=1;strokeColor=none;fillColor=none;align=center;verticalAlign=middle;whiteSpace=wrap;rounded=0;fontSize=15;" vertex="1" parent="1">
          <mxGeometry x="105" y="47.5" width="105" height="30" as="geometry" />
        </mxCell>
        <mxCell id="2XecXI-3c3T1MpKRaNhF-29" value="" style="ellipse;whiteSpace=wrap;html=1;aspect=fixed;" vertex="1" parent="1">
          <mxGeometry x="360" y="37.5" width="80" height="80" as="geometry" />
        </mxCell>
        <mxCell id="2XecXI-3c3T1MpKRaNhF-30" value="" style="endArrow=classic;html=1;rounded=0;entryX=0;entryY=0.5;entryDx=0;entryDy=0;exitX=1;exitY=0.5;exitDx=0;exitDy=0;" edge="1" parent="1" target="2XecXI-3c3T1MpKRaNhF-29">
          <mxGeometry width="50" height="50" relative="1" as="geometry">
            <mxPoint x="280" y="77.5" as="sourcePoint" />
            <mxPoint x="410" y="107.5" as="targetPoint" />
          </mxGeometry>
        </mxCell>
        <mxCell id="2XecXI-3c3T1MpKRaNhF-31" value="&lt;b&gt;&lt;font style=&quot;font-size: 15px;&quot;&gt;S66&lt;/font&gt;&lt;/b&gt;" style="text;html=1;strokeColor=none;fillColor=none;align=center;verticalAlign=middle;whiteSpace=wrap;rounded=0;" vertex="1" parent="1">
          <mxGeometry x="370" y="62.5" width="60" height="25" as="geometry" />
        </mxCell>
        <mxCell id="2XecXI-3c3T1MpKRaNhF-32" value="E" style="text;html=1;strokeColor=none;fillColor=none;align=center;verticalAlign=middle;whiteSpace=wrap;rounded=0;fontSize=15;" vertex="1" parent="1">
          <mxGeometry x="265" y="47.5" width="105" height="30" as="geometry" />
        </mxCell>
      </root>
    </mxGraphModel>
  </diagram>
</mxfile>
